<?xml version="1.0" standalone="no"?>
<!DOCTYPE svg PUBLIC "-//W3C//DTD SVG 20010904//EN"
 "http://www.w3.org/TR/2001/REC-SVG-20010904/DTD/svg10.dtd">
<svg version="1.0" xmlns="http://www.w3.org/2000/svg"
 width="4920.000000pt" height="4065.000000pt" viewBox="0 0 4920.000000 4065.000000"
 preserveAspectRatio="xMidYMid meet">
<metadata>
Created by potrace 1.16, written by Peter Selinger 2001-2019
</metadata>
<g transform="translate(0.000000,4065.000000) scale(0.100000,-0.100000)"
fill="#000000" stroke="none">
<path d="M20525 33310 c-145 -57 -564 -353 -1132 -801 -48 -38 -64 -44 -205
-75 -134 -29 -144 -33 -83 -29 39 3 198 12 355 20 1298 68 2171 69 3800 5 486
-19 1168 -55 1245 -65 l40 -6 -25 18 c-14 9 -29 21 -35 26 -20 17 -246 184
-320 237 -43 30 -141 102 -219 160 -78 58 -175 129 -216 159 -41 30 -91 66
-110 80 -31 23 -33 24 -19 4 13 -19 144 -165 224 -249 133 -140 241 -258 243
-264 2 -5 -32 3 -75 17 -202 64 -592 144 -868 178 -369 44 -455 49 -1025 49
l-556 1 -59 36 c-33 20 -163 99 -290 176 -343 209 -539 319 -600 336 -11 3
-42 -3 -70 -13z"/>
<path d="M26766 30402 c-8 -364 -37 -1270 -72 -2216 -14 -389 -23 -711 -20
-713 7 -8 383 232 465 296 20 15 56 39 81 53 25 14 119 69 209 122 238 140
349 185 576 231 106 22 188 33 449 62 l69 8 -304 201 c-167 110 -398 263 -514
338 -554 363 -534 349 -539 381 -3 17 -8 97 -11 178 -4 82 -13 195 -20 250 -7
56 -12 104 -10 106 5 4 -25 26 655 -470 1152 -841 1334 -971 1364 -980 50 -15
113 -10 179 12 169 57 305 210 238 267 -386 333 -1340 1079 -2516 1967 -137
103 -255 192 -261 197 -8 5 -13 -77 -18 -290z"/>
<path d="M13800 27777 c-267 -239 -252 -225 -244 -239 4 -6 3 -8 -4 -4 -5 3
-39 -18 -74 -48 -71 -60 -98 -76 -127 -76 -12 0 -21 -5 -21 -11 0 -6 -7 -9
-15 -6 -15 7 -277 -24 -285 -33 -3 -3 -25 -6 -50 -6 -43 -1 -102 -6 -235 -20
-102 -10 -127 -12 -215 -20 -47 -4 -88 -9 -92 -10 -5 -1 -32 -2 -62 -3 -58 -1
-77 -18 -51 -45 8 -7 12 -16 10 -18 -7 -7 164 -183 175 -181 5 2 7 -3 4 -11
-3 -7 2 -19 11 -26 12 -10 18 -10 33 1 15 13 16 12 4 -3 -11 -14 -2 -27 72
-102 47 -47 90 -86 96 -86 5 0 10 -5 10 -12 0 -16 50 -59 61 -52 5 3 9 -3 9
-13 0 -15 2 -16 10 -3 15 23 12 33 -10 27 -11 -3 -18 -1 -15 3 3 5 -1 11 -7
14 -7 3 0 2 16 -1 20 -4 27 -2 22 5 -4 7 -2 10 6 7 14 -6 19 -45 6 -45 -4 0
-6 -10 -5 -22 2 -22 82 -110 92 -100 2 2 -7 14 -21 24 -14 11 -23 23 -20 26 3
3 15 -3 26 -13 11 -10 20 -13 20 -8 0 6 -7 16 -15 23 -8 7 -12 16 -9 21 3 5
-2 9 -10 9 -8 0 -18 4 -21 10 -4 7 3 7 20 0 15 -6 32 -7 38 -3 7 4 6 -1 -2
-10 -8 -10 -11 -20 -7 -24 10 -10 111 -3 114 8 5 12 82 12 82 -1 0 -16 145
-13 159 3 6 8 10 16 8 18 -1 2 4 -2 11 -10 6 -8 12 -11 12 -6 0 5 9 -1 20 -13
12 -12 25 -22 31 -22 6 0 7 -5 3 -11 -4 -8 1 -9 17 -5 20 6 21 5 7 -4 -10 -6
-18 -19 -19 -28 0 -9 -5 -2 -10 16 -10 35 -31 46 -22 11 5 -19 4 -20 -16 -10
-14 8 -73 11 -171 10 -135 -2 -150 -4 -155 -20 -4 -11 3 -31 16 -49 13 -16 20
-32 17 -35 -9 -9 -48 60 -48 85 0 19 -3 20 -15 10 -12 -10 -14 -8 -10 9 2 12
0 21 -6 21 -5 0 -9 -4 -9 -9 0 -5 -3 -16 -6 -25 -4 -10 -1 -16 10 -16 8 0 22
-12 30 -28 17 -33 49 -63 70 -66 8 -1 24 -10 35 -20 14 -13 21 -14 27 -5 4 7
3 10 -4 5 -6 -3 -17 3 -26 15 -8 12 -19 18 -24 15 -6 -3 -9 2 -7 11 2 10 4 20
4 22 1 2 12 -8 27 -24 14 -15 28 -24 32 -20 4 4 -1 12 -11 20 -17 12 -17 13 1
17 13 4 19 0 18 -11 -1 -14 23 -16 213 -19 149 -2 218 1 227 9 10 8 14 8 14 1
0 -6 -9 -16 -21 -22 -25 -14 -17 -25 18 -25 22 -1 23 0 7 12 -15 11 -15 13 -2
18 15 6 104 -45 144 -82 12 -11 35 -25 52 -32 17 -7 38 -21 48 -32 9 -10 24
-19 32 -19 8 0 12 -6 9 -14 -4 -10 -1 -13 9 -9 8 3 26 -5 40 -17 13 -13 24
-19 25 -14 0 5 4 0 9 -12 5 -13 21 -24 40 -27 20 -5 29 -11 24 -18 -5 -8 -3
-9 5 -5 8 5 45 -14 94 -46 177 -118 179 -113 6 14 l-115 85 -12 114 c-6 63
-33 326 -61 584 -27 259 -57 544 -66 635 -9 91 -17 168 -18 172 -1 4 -18 -8
-37 -25z"/>
<path d="M38950 27399 c-1049 -51 -2344 -123 -4580 -254 -3292 -194 -4511
-270 -4518 -282 -4 -7 -15 -175 -25 -375 -65 -1343 -247 -4025 -481 -7124 -56
-731 -68 -889 -71 -892 -4 -5 -495 -48 -925 -81 -666 -52 -1570 -111 -2260
-146 -162 -8 -335 -17 -385 -20 -162 -10 -1225 -54 -1415 -59 l-185 -5 175 14
c613 50 1016 89 1430 141 1131 140 2191 340 2940 554 450 129 697 257 583 301
-79 30 -459 29 -1743 -6 -96 -3 -281 -7 -410 -10 -500 -12 -2265 -55 -2455
-60 -196 -5 -384 -10 -1630 -40 -341 -8 -701 -17 -800 -20 -99 -3 -281 -7
-405 -10 -377 -8 -1025 -24 -1210 -30 -391 -11 -646 -18 -660 -17 -8 0 -181
-4 -385 -9 -596 -14 -1170 -28 -1615 -39 -228 -5 -491 -12 -585 -15 -93 -3
-276 -7 -405 -10 -129 -3 -318 -7 -420 -10 -227 -6 -407 -10 -1430 -36 -443
-10 -877 -21 -965 -24 -88 -2 -299 -7 -470 -10 -170 -3 -346 -8 -390 -11 -44
-4 -86 -6 -92 -7 -7 0 -13 -3 -13 -7 0 -46 1126 -183 2585 -315 2477 -223
4954 -359 6680 -367 533 -2 517 -3 -275 -23 -1378 -34 -2206 -48 -3695 -66
-1060 -13 -5402 -14 -5655 -1 -150 7 -171 10 -225 35 -248 115 -546 413 -614
614 -20 59 -21 83 -21 455 0 1004 47 3365 95 4798 21 618 70 1719 79 1778 3
23 3 23 -68 17 -39 -3 -327 -24 -641 -46 -1135 -79 -1816 -134 -1851 -148 -19
-8 -23 -27 -42 -168 -95 -699 -430 -4137 -902 -9248 -351 -3805 -696 -7678
-759 -8540 -6 -77 -13 -170 -16 -207 l-6 -67 74 -59 c249 -198 810 -526 1023
-598 l79 -27 1030 7 c996 6 2498 19 5715 51 844 8 1875 17 2290 20 789 5 3173
29 4088 41 382 5 532 4 532 -4 0 -6 23 -134 51 -284 28 -150 53 -286 55 -303
3 -16 14 -77 24 -135 11 -58 31 -166 45 -240 13 -74 27 -146 30 -160 3 -14 10
-54 16 -90 6 -36 19 -110 29 -165 19 -100 22 -115 35 -190 3 -22 10 -60 15
-85 11 -52 18 -90 26 -140 2 -19 10 -59 15 -88 6 -30 9 -55 7 -57 -4 -5 -125
-13 -298 -20 -63 -3 -142 -7 -175 -10 -33 -3 -96 -7 -140 -10 -130 -7 -256
-16 -320 -20 -33 -3 -400 -25 -815 -50 -3411 -204 -5535 -346 -5740 -385 -28
-5 -63 -19 -78 -31 -94 -74 -218 -317 -356 -696 -68 -188 -181 -539 -192 -598
l-6 -35 5602 0 5602 0 537 45 c501 42 4005 346 5224 454 301 26 549 50 552 52
12 13 28 357 29 624 1 476 -33 663 -128 695 -124 41 -1621 56 -4085 41 -1175
-6 -1927 -7 -1930 -2 -8 13 -355 1921 -350 1925 2 2 488 9 1079 15 2284 25
5480 61 7985 91 462 5 1065 14 1340 20 275 6 799 15 1165 20 366 5 774 13 907
16 l241 7 16 86 c34 187 84 654 181 1706 63 674 214 2450 251 2935 l18 235 50
45 c405 356 683 780 867 1320 161 470 234 939 246 1560 5 275 3 321 -16 465
-44 324 -116 572 -241 824 -123 246 -233 403 -415 589 -64 67 -109 121 -107
130 2 20 182 2422 212 2837 11 154 22 297 24 318 2 20 1 37 -3 37 -4 0 -46
-30 -92 -67 -312 -247 -744 -468 -1131 -578 -183 -52 -479 -107 -565 -104 -21
1 7 7 61 15 1005 137 1948 748 2316 1499 82 166 112 271 117 405 4 100 2 122
-16 171 -50 131 -145 191 -301 192 -322 1 -772 -310 -1150 -795 -264 -340
-480 -543 -818 -770 -338 -226 -587 -354 -1002 -512 -223 -85 -263 -104 -256
-122 6 -17 2 -16 -166 32 -584 166 -1141 561 -1495 1060 -303 427 -490 910
-569 1475 -26 177 -26 662 -1 839 50 355 129 621 271 915 133 274 273 473 481
680 402 402 901 632 1540 711 167 21 650 23 895 5 600 -45 1110 -154 1535
-327 165 -68 394 -188 534 -281 69 -45 127 -80 130 -77 6 5 26 287 97 1314 40
584 40 583 -12 710 -32 80 -93 201 -152 305 -119 207 -339 533 -432 638 l-42
47 -196 -1 c-109 -1 -271 -6 -362 -10z m-1480 -9773 c938 -134 1548 -598 1804
-1370 89 -270 135 -590 136 -966 3 -489 -100 -1027 -285 -1500 -146 -374 -332
-684 -568 -953 -91 -103 -327 -321 -442 -407 -493 -371 -1166 -571 -1835 -546
-259 9 -530 41 -699 82 -35 9 -74 17 -85 18 -12 1 -26 5 -31 8 -6 3 -28 9 -50
13 -44 9 -44 9 -65 18 -8 3 -64 22 -125 41 -60 19 -195 69 -300 112 -186 75
-192 79 -285 159 -134 116 -359 350 -463 480 -345 431 -558 904 -642 1430 -23
137 -31 518 -15 671 63 621 289 1134 698 1589 385 427 978 779 1635 969 313
90 596 140 977 170 119 9 532 -2 640 -18z m-10662 -973 c60 -49 143 -120 185
-159 l75 -71 -38 -71 c-108 -198 -285 -369 -488 -471 -263 -132 -648 -158
-925 -62 -113 39 -179 82 -272 175 -102 102 -151 188 -181 313 l-17 71 51 59
c28 32 91 98 140 146 l89 89 254 14 c140 7 259 13 264 13 6 0 -28 -19 -75 -42
-103 -51 -191 -134 -234 -222 -25 -50 -30 -73 -30 -135 -1 -88 20 -137 80
-190 104 -91 339 -135 484 -91 61 19 143 74 186 128 61 74 87 149 88 253 1 78
-2 92 -32 153 -35 71 -82 115 -148 139 -19 7 -34 15 -34 19 0 5 258 23 407 27
l62 2 109 -87z m-3218 -75 c1 -18 -342 -4182 -344 -4185 -3 -3 -9799 -44
-9801 -41 -3 5 135 4191 138 4194 1 2 20 -1 42 -6 219 -48 1165 -70 3090 -70
1658 0 2824 13 4440 50 697 16 2130 57 2235 63 128 9 200 7 200 -5z m-11639
-6925 c0 -307 2 -565 4 -574 3 -15 -22 -18 -227 -24 -126 -4 -231 -6 -233 -3
-2 2 3 66 12 141 14 111 20 137 31 132 12 -4 12 -3 3 9 -14 17 -4 159 10 150
5 -3 6 2 3 10 -10 26 49 477 61 472 7 -2 12 2 12 10 0 7 -5 10 -10 7 -7 -4 -8
13 -4 48 4 30 7 64 7 77 0 13 3 21 8 19 4 -3 5 15 3 39 l-3 44 161 0 161 0 1
-557z"/>
<path d="M18125 15848 c-1490 -17 -2711 -31 -2713 -33 -6 -6 -45 -255 -41
-260 3 -2 1308 -6 2900 -7 l2895 -3 27 160 c15 88 27 163 27 168 0 9 131 10
-3095 -25z"/>
<path d="M15267 14587 c4 -8 42 -69 83 -137 l75 -123 2774 7 c1526 3 2777 8
2779 11 7 6 44 227 39 231 -3 3 -4603 23 -5475 24 -232 0 -282 -2 -275 -13z"/>
<path d="M15264 14039 l51 -107 210 -6 c305 -9 4864 -61 4869 -55 2 2 18 60
34 129 l29 125 -836 7 c-460 4 -1639 8 -2622 10 l-1785 3 50 -106z"/>
<path d="M29026 26895 c-8 -9 -17 -30 -20 -48 -7 -46 -26 -2876 -32 -4837 -4
-1196 -2 -1689 5 -1700 10 -13 12 -13 21 0 109 170 567 3809 664 5280 35 531
32 629 -24 764 -113 270 -399 556 -557 556 -24 0 -48 -6 -57 -15z"/>
<path d="M15977 25184 c-3 -5 -2 -16 4 -24 12 -21 11 -30 -3 -30 -8 0 -13 -15
-13 -40 0 -22 3 -40 8 -40 4 0 7 -8 7 -17 0 -15 -2 -16 -10 -3 -7 11 -10 4
-10 -28 l0 -42 88 -57 c48 -30 109 -70 136 -87 27 -17 54 -29 60 -27 6 2 60 3
121 3 70 -1 115 4 124 11 12 10 13 9 6 -2 -5 -9 -4 -12 3 -7 9 5 426 20 491
17 14 -1 36 9 50 21 14 13 20 15 13 6 -12 -15 -6 -16 65 -16 57 0 72 3 54 9
-13 5 -39 17 -57 25 -19 9 -43 14 -53 11 -10 -2 -25 0 -32 5 -11 8 -10 9 3 4
10 -3 20 -1 23 3 4 8 -22 19 -67 27 -10 2 -18 -2 -18 -9 0 -8 -3 -8 -9 2 -8
12 -12 12 -25 2 -11 -9 -16 -10 -16 -2 0 6 5 11 11 11 5 0 7 5 4 10 -4 6 -11
7 -17 4 -7 -4 -8 -2 -4 4 5 9 14 7 32 -4 13 -9 24 -12 24 -7 0 13 -120 64
-133 56 -5 -3 -7 -1 -3 5 4 6 -16 19 -51 32 -32 11 -65 23 -73 27 -8 3 -18 6
-22 5 -19 -4 -59 19 -52 30 4 6 3 8 -4 4 -6 -3 -13 -2 -17 4 -4 6 -15 4 -30
-6 -13 -8 -26 -11 -29 -6 -8 13 3 22 20 15 8 -3 14 0 14 6 0 6 -8 11 -17 11
-10 0 -27 7 -37 15 -16 12 -22 12 -28 2 -5 -8 -8 -6 -8 7 0 11 -3 16 -6 13 -4
-4 -19 2 -34 13 -15 11 -30 17 -33 13 -4 -3 -14 0 -22 7 -14 12 -15 10 -11
-13 3 -19 1 -24 -10 -20 -8 3 -11 10 -7 16 4 6 -2 8 -15 5 -12 -4 -20 -2 -16
3 3 5 -70 9 -175 9 -131 0 -180 3 -183 12 -3 7 -7 8 -11 2z"/>
<path d="M16430 24648 c8 -8 89 -71 180 -139 176 -133 519 -409 622 -501 196
-177 371 -346 445 -431 87 -100 299 -310 373 -370 143 -115 268 -188 410 -238
56 -20 84 -24 205 -24 139 0 141 1 243 40 94 36 102 41 85 53 -10 8 -268 169
-573 359 -642 399 -927 579 -1535 968 -242 155 -447 285 -455 290 -13 7 -13 6
0 -7z"/>
<path d="M39415 24566 c-117 -52 -117 -169 -2 -408 135 -278 213 -542 347
-1173 71 -333 143 -622 186 -746 96 -276 217 -409 351 -384 98 17 251 132 359
268 311 394 279 1011 -86 1624 -166 281 -405 529 -655 683 -197 121 -405 178
-500 136z"/>
</g>
</svg>
